<svg xmlns="http://www.w3.org/2000/svg" viewBox="0 0 64 64"><path d="M32.00,1.00 L34.85,21.37 L47.50,5.15 L39.78,24.22 L58.85,16.50 L42.63,29.15 L63.00,32.00 L42.63,34.85 L58.85,47.50 L39.78,39.78 L47.50,58.85 L34.85,42.63 L32.00,63.00 L29.15,42.63 L16.50,58.85 L24.22,39.78 L5.15,47.50 L21.37,34.85 L1.00,32.00 L21.37,29.15 L5.15,16.50 L24.22,24.22 L16.50,5.15 L29.15,21.37Z" fill="#FFF7EB"/><path d="M19.0,32 Q32,18 45.0,32 Q32,46 19.0,32Z" fill="#120708"/><circle cx="32" cy="32" r="5.4" fill="#860912"/><circle cx="32" cy="32" r="2.2" fill="#120708"/></svg>